<?xml version="1.0" encoding="utf-8"?>
<!-- Generator: Adobe Illustrator 26.5.0, SVG Export Plug-In . SVG Version: 6.00 Build 0)  -->
<svg version="1.1" id="Calque_1" xmlns="http://www.w3.org/2000/svg" xmlns:xlink="http://www.w3.org/1999/xlink" x="0px" y="0px"
	 viewBox="0 0 125 125" style="enable-background:new 0 0 125 125;" xml:space="preserve">
<style type="text/css">
	.st0{fill:#D4CCFF;}
	.st1{fill:#8550FC;}
	.st2{fill:#A796FF;}
	.st3{fill:#F4D37E;}
	.st4{fill:#FEF3F9;}
	.st5{fill:#7862EC;}
	.st6{fill:#FC8E53;}
	.st7{fill:#FDEAB1;}
	.st8{fill:#380F8F;}
	.st9{fill:#7B0F8F;}
	.st10{fill:#DE50FC;}
	.st11{fill:#D396FF;}
	.st12{fill:#FFFFFF;}
	.st13{fill:#DEB449;}
	.st14{fill:#232323;}
	.st15{fill:#808285;}
	.st16{fill:#1A0845;}
	.st17{fill:#0B53FF;}
	.st18{fill:#2175FB;}
	.st19{fill:#E6E7E8;}
	.st20{fill:#D1D3D4;}
	.st21{fill:#FBF3FE;}
</style>
<g>
	<path class="st0" d="M67.53,15.36c-0.21-0.11-0.43-0.21-0.65-0.3c-6.73-2.88-13.93,1.62-20.84,1.56
		c-6.38-0.06-12.45-3.32-18.83-3.21c-1.9,0.03-3.86,0.4-5.41,1.53c-1.69,1.23-2.71,3.2-4.14,4.74c-3.32,3.58-8.95,5.03-10.63,9.68
		c-1.32,3.66,0.46,7.65,1.86,11.28c2.41,6.22,3.77,13.22,1.81,19.6c-1.4,4.57-4.44,8.59-5.08,13.33c-0.57,4.17,0.8,8.45,2.77,12.09
		c2.61,4.84,2.59,10.38,3.88,15.61c0.84,3.42,2.54,6.88,5.62,8.59c2.76,1.54,6.01,1.37,9.06,1.54c3.16,0.18,6.18,0.33,9.35-0.03
		c5.35-0.62,10.6-1.91,15.98-2.29c9.81-0.69,19.56,1.69,29.38,2.2c5.42,0.28,11.16-0.11,15.69-3.2c3.86-2.63,6.43-7.04,7.41-11.73
		c0.98-4.68,0.46-9.61-0.94-14.18c-1.7-5.56-4.73-11.02-4.08-16.81c0.4-3.63,2.22-6.92,3.26-10.41c1.43-4.8,1.31-10.17-0.81-14.69
		c-1.26-2.69-3.26-5.02-5.71-6.6c-2.84-1.83-6.03-1.44-9.13-2.61C79.31,28.01,75.08,19.07,67.53,15.36z"/>
	<path class="st1" d="M15.14,58.77v4c0,0.64,0.52,1.17,1.17,1.17h1.94c0.31,1.26,0.81,2.45,1.46,3.53l-1.37,1.37
		c-0.46,0.46-0.46,1.19,0,1.65l2.83,2.83c0.46,0.46,1.19,0.46,1.65,0l1.37-1.37c1.09,0.65,2.27,1.15,3.53,1.46v1.94
		c0,0.64,0.52,1.17,1.17,1.17h4c0.64,0,1.17-0.52,1.17-1.17v-1.94c1.26-0.31,2.45-0.81,3.53-1.46l1.37,1.37
		c0.46,0.46,1.19,0.46,1.65,0l2.83-2.83c0.46-0.46,0.46-1.19,0-1.65l-1.37-1.37c0.65-1.09,1.15-2.27,1.46-3.53h1.94
		c0.64,0,1.17-0.52,1.17-1.17v-4c0-0.64-0.52-1.17-1.17-1.17h-1.94c-0.31-1.26-0.81-2.45-1.46-3.53l1.37-1.37
		c0.46-0.46,0.46-1.19,0-1.65l-2.83-2.83c-0.46-0.46-1.19-0.46-1.65,0l-1.37,1.37c-1.09-0.65-2.27-1.15-3.53-1.46v-1.94
		c0-0.64-0.52-1.17-1.17-1.17h-4c-0.64,0-1.17,0.52-1.17,1.17v1.94c-1.26,0.31-2.45,0.81-3.53,1.46l-1.37-1.37
		c-0.46-0.46-1.19-0.46-1.65,0l-2.83,2.83c-0.46,0.46-0.46,1.19,0,1.65l1.37,1.37c-0.65,1.09-1.15,2.27-1.46,3.53h-1.94
		C15.67,57.6,15.14,58.12,15.14,58.77z M23.01,60.77c0-4.36,3.53-7.89,7.89-7.89c4.36,0,7.89,3.53,7.89,7.89
		c0,4.36-3.53,7.89-7.89,7.89C26.54,68.65,23.01,65.12,23.01,60.77z"/>
	<path class="st2" d="M56.28,54.96v2.98c0,0.48,0.39,0.87,0.87,0.87h1.45c0.23,0.94,0.61,1.82,1.09,2.63l-1.02,1.02
		c-0.34,0.34-0.34,0.89,0,1.23l2.11,2.11c0.34,0.34,0.89,0.34,1.23,0l1.02-1.02c0.81,0.49,1.69,0.86,2.63,1.09v1.45
		c0,0.48,0.39,0.87,0.87,0.87h2.98c0.48,0,0.87-0.39,0.87-0.87v-1.45c0.94-0.23,1.82-0.61,2.63-1.09l1.02,1.02
		c0.34,0.34,0.89,0.34,1.23,0l2.11-2.11c0.34-0.34,0.34-0.89,0-1.23l-1.02-1.02c0.49-0.81,0.86-1.69,1.09-2.63h1.45
		c0.48,0,0.87-0.39,0.87-0.87v-2.98c0-0.48-0.39-0.87-0.87-0.87h-1.45c-0.23-0.94-0.61-1.82-1.09-2.63l1.02-1.02
		c0.34-0.34,0.34-0.89,0-1.23l-2.11-2.11c-0.34-0.34-0.89-0.34-1.23,0l-1.02,1.02c-0.81-0.49-1.69-0.86-2.63-1.09v-1.45
		c0-0.48-0.39-0.87-0.87-0.87h-2.98c-0.48,0-0.87,0.39-0.87,0.87v1.45c-0.94,0.23-1.82,0.61-2.63,1.09L62,47.1
		c-0.34-0.34-0.89-0.34-1.23,0l-2.11,2.11c-0.34,0.34-0.34,0.89,0,1.23l1.02,1.02c-0.49,0.81-0.86,1.69-1.09,2.63h-1.45
		C56.67,54.09,56.28,54.48,56.28,54.96z M62.14,56.45c0-3.25,2.63-5.88,5.88-5.88s5.88,2.63,5.88,5.88s-2.63,5.88-5.88,5.88
		S62.14,59.69,62.14,56.45z"/>
	<g>
		<g>
			<g>
				<path class="st3" d="M82.14,73.58c0.12-0.37,0.25-0.72,0.39-1.07L82.14,73.58z"/>
				<path class="st3" d="M82.13,73.62c-0.78,2.36-1.26,5.04-0.93,7.73l0.71,3.37l2.26-0.92c2.23-1.79,4.25-3.38,5.96-5.18
					c-0.91,0.27-1.89,0.5-2.67,0.55c0,0,1.71-0.53,3.31-1.24c1.45-1.64,2.65-3.48,3.55-5.79c-1.04,0.6-2.94,1.62-4.29,1.95
					c0,0,3.13-1.61,4.68-3.02c0.44-1.36,0.42-1.08,0.65-2.79c-1.03,0.67-2.49,1.53-3.6,1.89c0,0,2.15-1.3,3.7-2.62
					c0.14-1.19,0.59-4.26,0.62-5.65c0,0-1.9-0.57-5.57,1.59c-0.32,1.17-0.97,2.53-1.16,4.49c0,0-0.04-0.83,0.53-4.11
					c-1.44,0.93-3.26,1.77-4.46,3.33c0.03,0.9,0.32,1.73,0.4,4.49c0,0-0.26-2.67-1.08-3.53c-0.72,1.12-1.53,2.62-2.21,4.35
					l0.01,3.15L82.13,73.62z"/>
			</g>
			<path class="st4" d="M84.33,78.91c-0.43,0.8-0.83,1.62-1.2,2.46c-0.37,0.84-0.69,1.71-0.89,2.61l0.04,0.01
				c0.23-0.89,0.57-1.74,0.96-2.56c0.39-0.82,0.82-1.62,1.26-2.4c0.89-1.57,1.85-3.09,2.82-4.6c0.96-1.52,1.97-3.01,2.88-4.57
				c0.45-0.78,0.9-1.57,1.32-2.38c0.42-0.81,0.81-1.63,1.17-2.48l-0.04-0.02c-0.9,1.57-1.83,3.1-2.78,4.63
				c-0.95,1.52-1.87,3.08-2.81,4.62C86.12,75.76,85.19,77.31,84.33,78.91z"/>
		</g>
		<g>
			<path class="st2" d="M87.27,84.02c-0.03-3.33-0.24-4.73,0-5.82c1.91-1.42,3.99-2.33,6.01-2.9c-1.7,3.73-1.28,6.36-1.28,6.36
				c0.09-2.7,1.4-5.31,2.15-6.59c5.08-1.21,9.52-0.39,9.52-0.39c-0.47,1.65-0.97,3.16-1.49,4.53c-2.27,1-5.25,1.76-5.25,1.76
				c1.45-0.01,3.46-0.5,4.91-0.91c-0.81,1.97-1.68,3.67-2.63,5.13c-2.29,1.11-6.55,1.87-6.55,1.87c1.74,0.12,4.33-0.4,5.76-0.72
				c-1.78,2.44-3.79,4.2-6.04,5.63c-2.15,0.25-4.37,0.24-4.37,0.24c0.96,0.24,2.21,0.33,3.39,0.35c-2.61,1.51-5.53,2.67-8.76,3.98
				l-3,0.25l0.18-4.32c0.83-6.48,3.29-10.68,6.34-13.38C86.88,80.43,87.27,84.02,87.27,84.02z"/>
			<path class="st5" d="M80.31,96.05c0.55-0.99,1.22-1.88,1.94-2.72c0.72-0.84,1.48-1.64,2.26-2.41c1.55-1.55,3.17-3.01,4.8-4.47
				c1.63-1.46,3.29-2.87,4.86-4.41c0.79-0.77,1.56-1.55,2.31-2.37c0.75-0.81,1.48-1.65,2.16-2.54l-0.04-0.04
				c-1.56,1.55-3.16,3.04-4.77,4.52c-1.61,1.47-3.19,3-4.79,4.5c-1.6,1.5-3.19,3.01-4.71,4.61c-0.76,0.8-1.5,1.63-2.2,2.5
				c-0.7,0.87-1.35,1.79-1.87,2.8L80.31,96.05z"/>
		</g>
	</g>
	<g>
		<g>
			<g>
				<path class="st2" d="M21.85,84.09c-0.26-0.22-0.5-0.45-0.74-0.68L21.85,84.09z"/>
				<path class="st2" d="M21.87,84.11c1.65,1.44,3.68,2.7,6.01,3.22l3.02,0.38l0.07-2.35c-0.66-2.59-1.23-4.92-2.08-7.04
					c-0.11,0.91-0.28,1.88-0.52,2.61c0,0,0.19-1.73,0.19-3.41c-0.82-1.83-1.89-3.49-3.47-5.02c0.11,1.13,0.26,3.18,0.04,4.53
					c0,0-0.19-3.36-0.78-5.2c-0.95-0.82-0.73-0.71-2.05-1.45c0.17,1.15,0.35,2.75,0.24,3.87c0,0-0.29-2.36-0.81-4.18
					c-0.92-0.49-3.28-1.84-4.41-2.3c0,0-1.15,1.56-0.72,5.58c0.84,0.65,1.72,1.66,3.27,2.43c0,0-0.69-0.21-3.18-1.75
					c0.24,1.6,0.27,3.53,1.11,5.1c0.75,0.25,1.54,0.23,3.83,1.01c0,0-2.29-0.58-3.29-0.1c0.66,1.01,1.6,2.21,2.77,3.35l2.59,0.96
					L21.87,84.11z"/>
			</g>
			<path class="st5" d="M27.02,83.72c0.5,0.64,1.02,1.26,1.58,1.85c0.55,0.59,1.15,1.15,1.82,1.62l0.02-0.03
				c-0.65-0.48-1.22-1.06-1.75-1.66c-0.53-0.61-1.03-1.24-1.51-1.89c-0.96-1.3-1.86-2.64-2.75-3.99c-0.89-1.35-1.75-2.72-2.71-4.03
				c-0.48-0.65-0.96-1.3-1.48-1.93c-0.51-0.63-1.04-1.24-1.61-1.83l-0.03,0.03c0.96,1.3,1.88,2.63,2.79,3.96
				c0.9,1.34,1.85,2.65,2.77,3.98C25.08,81.12,26.02,82.45,27.02,83.72z"/>
		</g>
		<path class="st6" d="M26.39,79.35c-0.13-0.21-0.26-0.43-0.37-0.64L26.39,79.35z M27.63,79.94l-1.62-1.24
			c-0.58-1.07-0.98-2.12-1.23-2.98c0.81-0.12,2.31,0.79,2.31,0.79c-1.45-1.05-2.01-1.21-2.49-1.55c-0.25-1.29,0.15-2.66,0.33-3.85
			c1.42,1.63,1.87,1.93,1.87,1.93c-0.92-0.89-1.33-1.79-1.78-2.44c0.57-2.94,1.73-3.79,1.73-3.79c0.7,0.57,2.07,2.04,2.61,2.59
			c-0.03,1.4-0.34,3.14-0.34,3.14c0.33-0.77,0.55-1.94,0.68-2.79c0.77,0.81,0.64,0.69,1.13,1.48c0.02,1.43-0.58,3.85-0.58,3.85
			c0.45-0.9,0.79-2.39,0.96-3.21c0.78,1.42,1.17,2.83,1.35,4.31c-0.37,1.19-0.88,2.37-0.88,2.37c0.33-0.46,0.66-1.11,0.94-1.73
			c0.14,1.68,0.04,3.46-0.07,5.43L32,83.89l-2.06-0.93c-1.53-0.88-2.69-2.21-3.54-3.59L27.63,79.94z M30.12,80.22
			c0.22,0.56,0.45,1.11,0.71,1.65c0.26,0.54,0.56,1.06,0.93,1.54l0.02-0.02c-0.35-0.48-0.63-1.01-0.88-1.56
			c-0.24-0.54-0.46-1.1-0.65-1.67c-0.4-1.13-0.74-2.27-1.08-3.42c-0.34-1.15-0.64-2.31-1.03-3.44c-0.19-0.57-0.4-1.13-0.62-1.69
			c-0.22-0.56-0.47-1.11-0.74-1.64l-0.03,0.01c0.4,1.13,0.75,2.27,1.11,3.41c0.35,1.14,0.73,2.28,1.09,3.42
			C29.32,77.96,29.69,79.1,30.12,80.22z"/>
		<g>
			<path class="st3" d="M24.4,90.8c-2.2,0.71-3.08,1.16-3.86,1.21c-1.39-1.11-2.47-2.46-3.32-3.82c2.87,0.47,4.52-0.38,4.52-0.38
				c-1.81,0.5-3.84,0.08-4.87-0.21c-1.98-3.49-2.47-6.94-2.47-6.94c1.21,0,2.32,0.05,3.35,0.15c1.19,1.46,2.38,3.5,2.38,3.5
				c-0.34-1.07-1.13-2.45-1.74-3.43c1.5,0.18,2.82,0.48,4.01,0.87c1.27,1.46,2.76,4.44,2.76,4.44c-0.33-1.3-1.27-3.11-1.82-4.1
				c2.03,0.8,3.67,1.92,5.13,3.28c0.66,1.53,1.17,3.17,1.17,3.17c-0.06-0.75-0.29-1.7-0.55-2.57c1.61,1.61,3.05,3.52,4.67,5.63
				l0.86,2.16l-2.91,0.77c-4.49,0.74-7.84-0.2-10.34-1.88C22.11,91.83,24.4,90.8,24.4,90.8z"/>
			<path class="st7" d="M33.99,93.42c-0.78-0.2-1.53-0.51-2.25-0.86c-0.72-0.35-1.43-0.75-2.12-1.16c-1.39-0.82-2.73-1.71-4.08-2.61
				c-1.35-0.89-2.67-1.83-4.05-2.66c-0.69-0.42-1.39-0.83-2.11-1.21c-0.71-0.39-1.44-0.75-2.18-1.06l-0.02,0.03
				c1.39,0.83,2.75,1.69,4.1,2.57c1.35,0.88,2.73,1.73,4.09,2.59c1.37,0.86,2.74,1.72,4.15,2.51c0.71,0.39,1.43,0.77,2.17,1.1
				c0.74,0.33,1.5,0.62,2.29,0.8L33.99,93.42z"/>
		</g>
	</g>
	<g>
		<g>
			<path class="st8" d="M28.33,94.91h53.99V74.99c0-7.76-6.29-14.05-14.05-14.05H42.39c-7.76,0-14.05,6.29-14.05,14.05V94.91z"/>
			
				<rect x="30.9" y="63.43" transform="matrix(-1 -4.489132e-11 4.489132e-11 -1 110.6616 155.4003)" class="st1" width="48.87" height="28.55"/>
		</g>
		<g>
			<polygon class="st2" points="18.43,103.29 92.23,103.29 82.33,94.91 28.33,94.91 			"/>
			<path class="st8" d="M21.61,106.47h67.44c1.76,0,3.19-1.43,3.19-3.19v0H18.43v0C18.43,105.04,19.85,106.47,21.61,106.47z"/>
			<g>
				<path class="st4" d="M75.3,97.17h2.99c0.09,0,0.14-0.11,0.07-0.18l-0.93-0.88c-0.02-0.02-0.04-0.03-0.07-0.03H74.5
					c-0.09,0-0.14,0.11-0.08,0.17l0.8,0.88C75.24,97.16,75.27,97.17,75.3,97.17z"/>
				<path class="st4" d="M70.56,97.17h3.02c0.09,0,0.13-0.1,0.08-0.17l-0.74-0.88c-0.02-0.02-0.05-0.04-0.08-0.04h-2.88
					c-0.08,0-0.13,0.09-0.08,0.16l0.61,0.88C70.5,97.16,70.53,97.17,70.56,97.17z"/>
				<path class="st4" d="M65.83,97.17h3.04c0.08,0,0.13-0.09,0.09-0.16l-0.55-0.88c-0.02-0.03-0.05-0.05-0.09-0.05h-2.91
					c-0.08,0-0.13,0.08-0.09,0.15l0.41,0.88C65.76,97.15,65.8,97.17,65.83,97.17z"/>
				<path class="st4" d="M61.11,97.17h3.06c0.07,0,0.12-0.07,0.1-0.14l-0.36-0.88c-0.02-0.04-0.05-0.06-0.1-0.06h-2.93
					c-0.07,0-0.12,0.06-0.1,0.13l0.22,0.88C61.02,97.14,61.06,97.17,61.11,97.17z"/>
				<path class="st4" d="M56.39,97.17h3.07c0.06,0,0.11-0.06,0.1-0.12l-0.16-0.88c-0.01-0.05-0.05-0.08-0.1-0.08h-2.94
					c-0.06,0-0.1,0.05-0.1,0.11l0.03,0.88C56.29,97.13,56.33,97.17,56.39,97.17z"/>
				<path class="st4" d="M51.67,97.17h3.07c0.06,0,0.1-0.04,0.1-0.1l0.03-0.88c0-0.06-0.04-0.11-0.1-0.11h-2.94
					c-0.05,0-0.09,0.04-0.1,0.08l-0.16,0.88C51.56,97.12,51.61,97.17,51.67,97.17z"/>
				<path class="st4" d="M46.96,97.17h3.06c0.05,0,0.09-0.03,0.1-0.08l0.22-0.88c0.02-0.06-0.03-0.13-0.1-0.13h-2.93
					c-0.04,0-0.08,0.03-0.1,0.06l-0.36,0.88C46.84,97.1,46.89,97.17,46.96,97.17z"/>
				<path class="st4" d="M42.25,97.17h3.04c0.04,0,0.08-0.02,0.09-0.06l0.41-0.88c0.03-0.07-0.02-0.15-0.09-0.15H42.8
					c-0.04,0-0.07,0.02-0.09,0.05l-0.55,0.88C42.12,97.09,42.17,97.17,42.25,97.17z"/>
				<path class="st4" d="M37.55,97.17h3.02c0.03,0,0.07-0.02,0.08-0.04l0.61-0.88c0.05-0.07,0-0.16-0.08-0.16h-2.88
					c-0.03,0-0.06,0.01-0.08,0.04L37.47,97C37.41,97.07,37.46,97.17,37.55,97.17z"/>
				<path class="st4" d="M32.84,97.17h2.99c0.03,0,0.06-0.01,0.08-0.03l0.8-0.88c0.06-0.07,0.01-0.17-0.08-0.17h-2.85
					c-0.03,0-0.05,0.01-0.07,0.03L32.77,97C32.71,97.06,32.75,97.17,32.84,97.17z"/>
				<path class="st4" d="M76.79,98.82h3.24c0.09,0,0.14-0.11,0.07-0.18l-1.11-1.05c-0.02-0.02-0.04-0.03-0.07-0.03h-3.08
					c-0.09,0-0.14,0.11-0.08,0.17l0.95,1.05C76.73,98.81,76.76,98.82,76.79,98.82z"/>
				<path class="st4" d="M71.7,98.82h3.27c0.09,0,0.13-0.1,0.08-0.17l-0.88-1.05c-0.02-0.02-0.05-0.04-0.08-0.04h-3.11
					c-0.08,0-0.13,0.09-0.08,0.16l0.72,1.05C71.63,98.81,71.66,98.82,71.7,98.82z"/>
				<path class="st4" d="M66.61,98.82h3.29c0.08,0,0.13-0.09,0.09-0.16l-0.65-1.05c-0.02-0.03-0.05-0.05-0.09-0.05h-3.13
					c-0.08,0-0.13,0.08-0.09,0.15l0.49,1.05C66.53,98.8,66.57,98.82,66.61,98.82z"/>
				<path class="st4" d="M78.53,100.74h3.53c0.09,0,0.14-0.11,0.07-0.18l-1.33-1.26c-0.02-0.02-0.04-0.03-0.07-0.03h-3.34
					c-0.09,0-0.14,0.11-0.08,0.17l1.14,1.26C78.47,100.73,78.5,100.74,78.53,100.74z"/>
				<path class="st4" d="M73.02,100.74h3.56c0.09,0,0.13-0.1,0.08-0.17l-1.05-1.26c-0.02-0.02-0.05-0.04-0.08-0.04h-3.37
					c-0.08,0-0.13,0.09-0.08,0.16l0.86,1.26C72.95,100.73,72.98,100.74,73.02,100.74z"/>
				<path class="st4" d="M67.51,100.74h3.58c0.08,0,0.13-0.09,0.09-0.16l-0.78-1.26c-0.02-0.03-0.05-0.05-0.09-0.05h-3.39
					c-0.08,0-0.13,0.08-0.09,0.15l0.59,1.26C67.43,100.72,67.47,100.74,67.51,100.74z"/>
				<path class="st4" d="M61.52,98.82h3.31c0.07,0,0.12-0.07,0.1-0.14l-0.42-1.05c-0.02-0.04-0.05-0.06-0.1-0.06h-3.15
					c-0.07,0-0.12,0.06-0.1,0.13l0.26,1.05C61.44,98.79,61.48,98.82,61.52,98.82z"/>
				<path class="st4" d="M45.52,100.74h20.08c0.07,0,0.12-0.07,0.1-0.14l-0.51-1.26c-0.02-0.04-0.05-0.06-0.1-0.06H46.03
					c-0.04,0-0.08,0.03-0.1,0.06l-0.51,1.26C45.4,100.67,45.45,100.74,45.52,100.74z"/>
				<path class="st4" d="M56.44,98.82h3.32c0.06,0,0.11-0.06,0.1-0.12l-0.19-1.05c-0.01-0.05-0.05-0.08-0.1-0.08h-3.16
					c-0.06,0-0.1,0.05-0.1,0.11l0.03,1.05C56.34,98.78,56.39,98.82,56.44,98.82z"/>
				<path class="st4" d="M51.37,98.82h3.32c0.06,0,0.1-0.04,0.1-0.1l0.03-1.05c0-0.06-0.04-0.11-0.1-0.11h-3.16
					c-0.05,0-0.09,0.04-0.1,0.08l-0.19,1.05C51.25,98.77,51.3,98.82,51.37,98.82z"/>
				<path class="st4" d="M46.3,98.82h3.31c0.05,0,0.09-0.03,0.1-0.08l0.26-1.05c0.02-0.06-0.03-0.13-0.1-0.13h-3.15
					c-0.04,0-0.08,0.03-0.1,0.06l-0.42,1.05C46.17,98.75,46.22,98.82,46.3,98.82z"/>
				<path class="st4" d="M41.23,98.82h3.29c0.04,0,0.08-0.02,0.09-0.06l0.49-1.05c0.03-0.07-0.02-0.15-0.09-0.15h-3.13
					c-0.04,0-0.07,0.02-0.09,0.05l-0.65,1.05C41.1,98.73,41.15,98.82,41.23,98.82z"/>
				<path class="st4" d="M36.16,98.82h3.27c0.03,0,0.07-0.02,0.08-0.04l0.72-1.05c0.05-0.07,0-0.16-0.08-0.16h-3.11
					c-0.03,0-0.06,0.01-0.08,0.04l-0.88,1.05C36.03,98.72,36.08,98.82,36.16,98.82z"/>
				<path class="st4" d="M35.24,99.92h3.43c0.03,0,0.07-0.02,0.08-0.04l0.3-0.44c0.05-0.07,0-0.16-0.08-0.16h-3.37
					c-0.03,0-0.06,0.01-0.08,0.04l-0.37,0.44C35.11,99.82,35.15,99.92,35.24,99.92z"/>
				<path class="st4" d="M34.55,100.74h3.56c0.03,0,0.07-0.02,0.08-0.04l0.34-0.49c0.05-0.07,0-0.16-0.08-0.16h-3.48
					c-0.03,0-0.06,0.01-0.08,0.04l-0.41,0.49C34.42,100.64,34.47,100.74,34.55,100.74z"/>
				<path class="st4" d="M29.07,100.74h3.53c0.03,0,0.06-0.01,0.08-0.03l0.44-0.49c0.06-0.07,0.01-0.17-0.08-0.17h-3.45
					c-0.03,0-0.05,0.01-0.07,0.03L29,100.57C28.93,100.63,28.98,100.74,29.07,100.74z"/>
				<path class="st4" d="M40.04,100.74h3.58c0.04,0,0.08-0.02,0.09-0.06l0.23-0.49c0.03-0.07-0.02-0.15-0.09-0.15h-3.51
					c-0.04,0-0.07,0.02-0.09,0.05l-0.3,0.49C39.91,100.66,39.96,100.74,40.04,100.74z"/>
				<path class="st4" d="M31.1,98.82h3.24c0.03,0,0.06-0.01,0.08-0.03l0.95-1.05c0.06-0.07,0.01-0.17-0.08-0.17h-3.08
					c-0.03,0-0.05,0.01-0.07,0.03l-1.11,1.05C30.96,98.71,31.01,98.82,31.1,98.82z"/>
			</g>
		</g>
	</g>
	<g>
		<g>
			<g>
				<polygon class="st9" points="119.52,20.43 108.82,28.46 111.89,32.26 				"/>
			</g>
			<g>
				<polygon class="st10" points="119.52,20.43 111.27,28.59 111.89,32.26 				"/>
			</g>
			<g>
				<polygon class="st11" points="119.52,20.43 104.73,27.49 108.82,28.46 				"/>
			</g>
			<g>
				<polygon class="st11" points="119.52,20.43 111.27,28.59 116.25,29.4 				"/>
			</g>
		</g>
		<g>
			<path class="st1" d="M72.52,53.15c-0.06-0.1-0.02-0.23,0.08-0.28c0.32-0.18,0.64-0.38,0.95-0.59c0.09-0.06,0.22-0.04,0.29,0.05
				c0.06,0.1,0.04,0.23-0.05,0.29c-0.32,0.22-0.65,0.42-0.98,0.61c-0.02,0.01-0.04,0.02-0.06,0.02
				C72.65,53.27,72.56,53.23,72.52,53.15z M74.74,51.63c-0.08-0.09-0.07-0.22,0.02-0.29c0.38-0.33,0.76-0.69,1.11-1.07
				c0.08-0.08,0.21-0.09,0.29-0.01c0.08,0.08,0.09,0.21,0.01,0.29c-0.37,0.39-0.75,0.76-1.15,1.1c-0.03,0.02-0.06,0.04-0.09,0.05
				C74.87,51.72,74.79,51.69,74.74,51.63z M76.92,49.39c-0.09-0.07-0.11-0.2-0.04-0.29c0.31-0.4,0.61-0.82,0.9-1.26
				c0.06-0.1,0.19-0.12,0.29-0.06c0.1,0.06,0.12,0.19,0.06,0.29c-0.29,0.45-0.6,0.88-0.92,1.29c-0.03,0.04-0.08,0.07-0.12,0.08
				C77.03,49.44,76.97,49.43,76.92,49.39z M78.66,46.8c-0.1-0.06-0.14-0.18-0.08-0.28c0.24-0.44,0.48-0.91,0.7-1.38
				c0.05-0.1,0.17-0.15,0.28-0.1c0.1,0.05,0.15,0.17,0.1,0.28c-0.23,0.48-0.47,0.96-0.72,1.41c-0.03,0.06-0.08,0.09-0.14,0.1
				C78.76,46.83,78.71,46.82,78.66,46.8z M94.94,40.89c-0.03-0.11,0.05-0.22,0.16-0.25c0.51-0.11,1.02-0.24,1.51-0.37
				c0.11-0.03,0.23,0.04,0.26,0.15c0.03,0.11-0.04,0.23-0.15,0.26c-0.5,0.14-1.01,0.26-1.53,0.38c0,0,0,0,0,0
				C95.07,41.07,94.96,41,94.94,40.89z M93.65,41.36c-0.51,0.09-1.03,0.18-1.55,0.25c-0.11,0.02-0.22-0.06-0.24-0.18
				c-0.02-0.11,0.07-0.22,0.18-0.24c0.52-0.07,1.03-0.16,1.54-0.25c0.11-0.02,0.22,0.05,0.24,0.17
				C93.83,41.23,93.76,41.34,93.65,41.36C93.65,41.36,93.65,41.36,93.65,41.36z M80.01,43.97c-0.11-0.04-0.16-0.16-0.12-0.27
				c0.19-0.48,0.36-0.97,0.52-1.46c0.04-0.11,0.15-0.17,0.26-0.13c0.11,0.04,0.17,0.15,0.13,0.26c-0.16,0.5-0.34,1-0.53,1.48
				c-0.03,0.07-0.09,0.11-0.15,0.13C80.09,43.99,80.05,43.99,80.01,43.97z M97.97,40.09c-0.04-0.11,0.02-0.23,0.13-0.26
				c0.5-0.16,0.99-0.34,1.47-0.52c0.11-0.04,0.23,0.01,0.27,0.12c0.04,0.11-0.01,0.23-0.12,0.27c-0.48,0.18-0.98,0.36-1.49,0.52
				c-0.01,0-0.01,0-0.02,0.01C98.1,40.25,98,40.19,97.97,40.09z M90.53,41.8c-0.21,0.02-0.41,0.04-0.61,0.06
				c-0.32,0.03-0.64,0.05-0.96,0.06c-0.11,0.01-0.21-0.08-0.22-0.2c-0.01-0.12,0.08-0.21,0.2-0.22c0.31-0.01,0.63-0.03,0.94-0.06
				c0.2-0.02,0.4-0.04,0.61-0.06c0.11-0.01,0.22,0.07,0.23,0.19c0.01,0.11-0.06,0.2-0.17,0.23C90.55,41.8,90.54,41.8,90.53,41.8z
				 M87.38,41.94c-0.53-0.01-1.06-0.05-1.58-0.1c-0.11-0.01-0.2-0.11-0.19-0.23c0.01-0.11,0.11-0.2,0.23-0.19
				c0.51,0.05,1.03,0.09,1.55,0.1c0.12,0,0.21,0.1,0.2,0.21c0,0.1-0.07,0.18-0.17,0.2C87.41,41.94,87.4,41.94,87.38,41.94z
				 M100.9,38.99c-0.05-0.1,0-0.23,0.1-0.28c0.48-0.22,0.95-0.45,1.39-0.68c0.1-0.05,0.23-0.02,0.28,0.09
				c0.05,0.1,0.02,0.23-0.09,0.28c-0.45,0.24-0.93,0.48-1.42,0.7c-0.01,0.01-0.03,0.01-0.04,0.01
				C101.03,39.13,100.94,39.08,100.9,38.99z M103.66,37.54c-0.06-0.1-0.03-0.23,0.06-0.29c0.44-0.28,0.87-0.58,1.27-0.88
				c0.09-0.07,0.22-0.05,0.29,0.04c0.07,0.09,0.05,0.22-0.04,0.29c-0.41,0.31-0.85,0.61-1.3,0.9c-0.02,0.01-0.05,0.02-0.07,0.03
				C103.8,37.65,103.71,37.61,103.66,37.54z M84.24,41.61c-0.52-0.09-1.04-0.21-1.54-0.34c-0.11-0.03-0.18-0.14-0.15-0.26
				c0.03-0.11,0.14-0.18,0.26-0.15c0.49,0.13,1,0.24,1.51,0.34c0.11,0.02,0.19,0.13,0.17,0.24c-0.02,0.09-0.08,0.15-0.16,0.17
				C84.29,41.62,84.27,41.62,84.24,41.61z M81.01,41.01c-0.11-0.03-0.18-0.14-0.15-0.26c0.01-0.02,0.01-0.04,0.02-0.06
				c-0.39-0.15-0.78-0.3-1.16-0.47c-0.11-0.05-0.15-0.17-0.11-0.28c0.05-0.1,0.17-0.15,0.28-0.11c0.36,0.16,0.72,0.31,1.09,0.45
				c0.09-0.35,0.16-0.7,0.23-1.04c0.02-0.11,0.13-0.19,0.25-0.16c0.11,0.02,0.19,0.13,0.16,0.25c-0.07,0.36-0.16,0.73-0.25,1.11
				c0.08,0.05,0.11,0.15,0.08,0.24c-0.03,0.08-0.1,0.13-0.18,0.14c0,0.02-0.01,0.03-0.01,0.05c-0.02,0.08-0.08,0.14-0.16,0.15
				C81.07,41.02,81.04,41.02,81.01,41.01z M106.17,35.68c-0.08-0.08-0.07-0.22,0.01-0.29c0.38-0.35,0.75-0.72,1.08-1.1
				c0.08-0.09,0.21-0.09,0.29-0.02c0.09,0.08,0.09,0.21,0.02,0.29c-0.34,0.39-0.72,0.77-1.11,1.13c-0.03,0.03-0.06,0.04-0.1,0.05
				C106.3,35.75,106.22,35.73,106.17,35.68z M108.27,33.36c-0.09-0.07-0.12-0.2-0.05-0.29c0.3-0.42,0.57-0.86,0.81-1.31
				c0.05-0.1,0.18-0.14,0.28-0.08c0.1,0.05,0.14,0.18,0.08,0.28c-0.25,0.46-0.53,0.92-0.84,1.35c-0.03,0.05-0.08,0.07-0.13,0.08
				C108.38,33.41,108.32,33.4,108.27,33.36z M78.3,39.51c-0.46-0.25-0.92-0.53-1.35-0.82c-0.1-0.06-0.12-0.19-0.06-0.29
				c0.06-0.1,0.19-0.12,0.29-0.06c0.43,0.28,0.87,0.55,1.33,0.8c0.1,0.06,0.14,0.18,0.08,0.28c-0.03,0.06-0.08,0.09-0.14,0.1
				C78.4,39.54,78.35,39.54,78.3,39.51z M81.64,37.95c-0.11-0.01-0.2-0.12-0.18-0.23c0.07-0.52,0.11-1.04,0.13-1.54
				c0-0.12,0.1-0.2,0.22-0.2c0.11,0,0.2,0.1,0.2,0.22c-0.02,0.51-0.07,1.04-0.13,1.58c-0.01,0.09-0.08,0.16-0.16,0.18
				C81.69,37.95,81.67,37.95,81.64,37.95z M75.66,37.77c-0.41-0.32-0.82-0.67-1.2-1.02c-0.08-0.08-0.09-0.21-0.01-0.29
				c0.08-0.09,0.21-0.09,0.29-0.01c0.38,0.35,0.78,0.69,1.18,1c0.09,0.07,0.11,0.2,0.04,0.29c-0.03,0.04-0.08,0.07-0.12,0.08
				C75.78,37.83,75.71,37.81,75.66,37.77z M81.8,34.82c-0.12,0.01-0.21-0.08-0.22-0.2c-0.03-0.52-0.08-1.04-0.16-1.53
				c-0.02-0.11,0.05-0.22,0.17-0.24c0.11-0.02,0.22,0.06,0.24,0.17c0.08,0.51,0.14,1.04,0.17,1.58c0.01,0.1-0.07,0.2-0.17,0.22
				C81.82,34.82,81.81,34.82,81.8,34.82z M73.34,35.63c-0.35-0.38-0.7-0.79-1.03-1.2c-0.07-0.09-0.06-0.22,0.03-0.29
				c0.09-0.07,0.22-0.06,0.29,0.03c0.32,0.41,0.66,0.8,1.01,1.18c0.08,0.08,0.07,0.22-0.01,0.29c-0.03,0.03-0.06,0.04-0.1,0.05
				C73.47,35.71,73.39,35.69,73.34,35.63z M81.09,31.59l-0.02-0.06c-0.13-0.46-0.3-0.92-0.51-1.38c-0.05-0.11,0-0.23,0.1-0.28
				c0.1-0.05,0.23,0,0.28,0.1c0.21,0.48,0.39,0.96,0.53,1.43l0.02,0.06c0.03,0.11-0.03,0.23-0.14,0.26c-0.01,0-0.01,0-0.02,0
				C81.23,31.76,81.12,31.7,81.09,31.59z M71.38,33.15c-0.29-0.43-0.57-0.89-0.83-1.34c-0.06-0.1-0.02-0.23,0.08-0.28
				c0.1-0.06,0.23-0.02,0.28,0.08c0.26,0.45,0.53,0.89,0.82,1.32c0.06,0.1,0.04,0.23-0.06,0.29c-0.02,0.02-0.05,0.03-0.07,0.03
				C71.52,33.26,71.43,33.23,71.38,33.15z M79.84,28.79c-0.27-0.44-0.57-0.86-0.89-1.25c-0.07-0.09-0.06-0.22,0.03-0.29
				c0.09-0.07,0.22-0.06,0.29,0.03c0.33,0.41,0.65,0.84,0.93,1.3c0.06,0.1,0.03,0.23-0.07,0.29c-0.02,0.01-0.04,0.02-0.07,0.03
				C79.98,28.9,79.89,28.87,79.84,28.79z M69.82,30.41l-0.11-0.24c-0.19-0.41-0.34-0.84-0.43-1.27c-0.03-0.11,0.05-0.22,0.16-0.25
				c0,0,0,0,0,0c0.11-0.02,0.22,0.05,0.25,0.16c0.09,0.41,0.23,0.81,0.4,1.19l0.11,0.23c0.05,0.1,0.01,0.23-0.1,0.28
				c-0.02,0.01-0.03,0.01-0.05,0.02C69.96,30.55,69.86,30.5,69.82,30.41z M77.89,26.43c-0.39-0.35-0.79-0.66-1.21-0.93
				c-0.1-0.06-0.13-0.19-0.06-0.29c0.06-0.1,0.19-0.13,0.29-0.06c0.44,0.28,0.86,0.61,1.27,0.97c0.09,0.08,0.09,0.21,0.01,0.29
				c-0.03,0.03-0.07,0.06-0.11,0.06C78.01,26.49,77.94,26.48,77.89,26.43z M69.34,27.51c-0.12-0.01-0.2-0.11-0.19-0.23
				c0.05-0.59,0.2-1.12,0.46-1.58c0.06-0.1,0.18-0.14,0.28-0.08c0.1,0.06,0.14,0.18,0.08,0.28c-0.23,0.41-0.37,0.88-0.41,1.41
				c-0.01,0.09-0.08,0.17-0.17,0.19C69.38,27.51,69.36,27.51,69.34,27.51z M75.33,24.8c-0.48-0.19-0.97-0.32-1.46-0.39
				c-0.11-0.02-0.19-0.12-0.18-0.24c0.02-0.11,0.12-0.19,0.24-0.18c0.52,0.08,1.04,0.21,1.55,0.41c0.11,0.04,0.16,0.16,0.12,0.27
				c-0.03,0.07-0.09,0.11-0.15,0.13C75.41,24.82,75.37,24.82,75.33,24.8z M70.69,24.81c-0.06-0.1-0.03-0.23,0.07-0.29
				c0.45-0.28,0.98-0.46,1.55-0.54c0.11-0.02,0.22,0.06,0.24,0.18c0.02,0.11-0.06,0.22-0.18,0.24c-0.51,0.07-0.98,0.24-1.39,0.48
				c-0.02,0.01-0.04,0.02-0.07,0.03C70.83,24.92,70.74,24.88,70.69,24.81z"/>
		</g>
	</g>
	<g>
		<path class="st6" d="M26.78,38.94h3.1c4.17,0,7.55-3.38,7.55-7.55v0c0-4.17-3.38-7.55-7.55-7.55h-3.1c-4.17,0-7.55,3.38-7.55,7.55
			v0C19.23,35.56,22.61,38.94,26.78,38.94z"/>
		<g>
			<path class="st12" d="M20.04,25.3L25,30.25c0.09,0.09,0.17,0.17,0.26,0.24c0.88,0.76,1.97,1.14,3.08,1.14
				c1.1,0,2.19-0.38,3.08-1.14c0.09-0.08,0.18-0.16,0.26-0.24l0.35-0.35l4.6-4.6c-0.17-0.23-0.38-0.43-0.59-0.61l-4.61,4.61
				l-0.35,0.35c-0.09,0.09-0.17,0.17-0.27,0.24c-1.42,1.19-3.51,1.19-4.94,0c-0.09-0.08-0.18-0.16-0.27-0.24l-0.35-0.35l-4.61-4.61
				C20.42,24.87,20.22,25.07,20.04,25.3z"/>
			<path class="st12" d="M31.07,29.65c-0.09,0.09-0.17,0.17-0.27,0.24l0.61,0.61l5.83,5.83c0.11-0.32,0.17-0.67,0.19-1.02l-5.4-5.4
				l-0.61-0.61L31.07,29.65z"/>
			<path class="st12" d="M19.24,35.31c0.02,0.35,0.08,0.7,0.19,1.02l5.83-5.83l0.61-0.61c-0.09-0.08-0.18-0.16-0.27-0.24l-0.35-0.35
				l-0.6,0.6L19.24,35.31z"/>
		</g>
	</g>
	<g>
		<polygon class="st3" points="46.97,57.42 54.4,63.69 62.51,57.89 60.58,52.6 60.18,50.58 59.39,46.58 51.25,46.35 50.9,47.78 
			49.95,51.62 		"/>
		<g>
			<path class="st13" d="M50.9,47.78c0.82,1.46,3.09,3.42,9.28,2.8l-0.79-4l-8.14-0.22L50.9,47.78z"/>
			<g>
				<path class="st3" d="M47.69,36.1c0,7.02,3.38,12.71,7.56,12.71c4.17,0,7.56-5.69,7.56-12.71S59.42,27,55.25,27
					C51.07,27,47.69,29.08,47.69,36.1z"/>
				<path class="st13" d="M51.52,27.71c0,0-0.03,4.05,3.63,4.41c3.66,0.36,6.99-1.85,7.83,2.94v-4.29l-4.05-2.38L51.52,27.71z"/>
				<path class="st14" d="M51.58,26.44c0.46-1.6,1.59-1.56,3.98-1.56c2.4,0,8.91,1.1,7.88,9.32c-1.03,8.22-1.1,10.41-1.89,11.55
					c-0.8,1.14-2.14,3.09-6.09,3.06c-3.1-0.03-5.37-1.28-6.39-3.45c-1.03-2.17-2.85-12.87-2.17-15.26S48.16,26.25,51.58,26.44z
					 M51.47,28.4c0,1.94-2.12,4.53-3.05,4.8c0,0-0.38,6.7,0.3,8.13c0.47,1,2.8-0.12,3.88,1.06c-1.41,2.71,0.69,3.41,2.9,3.41
					c2.33,0,4.45-1.71,2.33-3.71c1.54-0.81,4.05-0.12,4.24-1c0.48-2.23,1.39-7.53-0.08-9.19c-1.48-1.66-5.34,0.39-7.53-0.63
					C52.28,30.26,51.47,28.4,51.47,28.4z"/>
				<path class="st14" d="M57.84,35.64c0,0.6,0.33,1.08,0.74,1.08c0.41,0,0.74-0.48,0.74-1.08c0-0.6-0.33-1.08-0.74-1.08
					C58.17,34.56,57.84,35.04,57.84,35.64z"/>
				<path class="st14" d="M51.52,35.64c0,0.6,0.33,1.08,0.74,1.08S53,36.24,53,35.64c0-0.6-0.33-1.08-0.74-1.08
					S51.52,35.04,51.52,35.64z"/>
				<path class="st12" d="M57.52,43.11h-4.35c0,0,0.47,1.88,2,1.88C56.69,45,57.33,43.89,57.52,43.11z"/>
				<path class="st13" d="M55.34,36.72c0,0,2.78,4.45,0,4.44V36.72z"/>
			</g>
			<g>
				<path class="st15" d="M63.91,36.32c0.08-0.42,0.12-0.86,0.12-1.3c0-4.37-3.85-7.17-8.61-7.17c-4.75,0-8.61,2.8-8.61,7.17
					c0,0.44,0.04,0.88,0.12,1.3h-0.99c-0.23-0.77-0.45-1.59-0.36-2.43c0.42-4.1,3.82-8.05,9.84-8.05c5.43,0,9.73,4.27,9.73,8.59
					c0,0.84-0.02,1.12-0.26,1.9H63.91z"/>
				<g>
					<path class="st15" d="M63.53,41.06l0.88,0.09c1.01,0.11,1.92-0.59,2.03-1.55l0.49-4.23c0.11-0.96-0.61-1.83-1.62-1.93
						l-0.88-0.09c-0.54-0.06-1.03,0.31-1.09,0.83l-0.68,5.85C62.6,40.54,62.99,41,63.53,41.06z"/>
					<path class="st15" d="M47.15,41.06l-0.88,0.09c-1.01,0.11-1.92-0.59-2.03-1.55l-0.49-4.23c-0.11-0.96,0.61-1.83,1.62-1.93
						l0.88-0.09c0.54-0.06,1.03,0.31,1.09,0.83l0.68,5.85C48.08,40.54,47.69,41,47.15,41.06z"/>
				</g>
			</g>
			<path class="st14" d="M53.17,25.48c0,0,0.59,1.93,4,1.94c3.41,0,4.47,0.29,4.47,0.29S59.11,25.01,53.17,25.48z"/>
		</g>
		<g>
			<path class="st8" d="M42.45,69.23c0.23,0.08,0.44,0.15,0.62,0.21c-0.11,1-0.23,3.32-0.35,5.49l-0.01,0.25
				c-0.03,0.6-0.07,1.19-0.11,1.73c-0.07,0.98-0.13,1.81-0.2,2.27c-0.2,1.15-0.36,2.33-0.49,3.44c-0.33,2.81-0.44,5.14-0.44,5.14
				c0.54-0.01,26.78,0,26.78,0l-0.13-4.53l-0.09-2.99l-0.09-2.83l-0.23-7.84c0.24-0.08,0.64-0.16,1.14-0.25
				c1.91-0.33,5.29-0.69,6.58-0.82c0.33-0.03,0.52-0.05,0.52-0.05s-2.9-12.12-4.69-14.04c-3.25-2.04-6.62-2.84-11.07-3.84
				c0,0,0.28,1.68-0.55,3.13c-1.99,3.48-8.58,2.86-9.46-1.05c-0.21-0.94,0.03-2.07,0.03-2.07s-9.12,1.89-10.89,4
				c-1.38,2.34-3.93,12.67-3.93,12.67s0.25,0.06,0.66,0.17C37.44,67.78,40.64,68.64,42.45,69.23z"/>
			<polygon class="st16" points="44.92,62.05 43.07,69.44 42.71,75.19 44.92,69.17 			"/>
			<polygon class="st16" points="66.47,73.62 67.46,77.84 68.02,80.25 67.93,77.41 67.7,69.57 66.47,61.49 			"/>
		</g>
		<g>
			<g>
				<path class="st14" d="M72.13,92.78c0,0,9.31,0.5,11.45,1.45c2.13,0.95-0.32,5.79-1.81,5.99c-1.09,0.15-10.33-0.78-11.63-2.13
					L72.13,92.78z"/>
				<path class="st3" d="M72.13,92.78c0,0,4.04,0.86,4.79,1.84c0.75,0.98,0.88,3.65,0.32,3.76c-0.56,0.11-1.26,0.99-7.12-0.29
					L72.13,92.78z"/>
			</g>
			<path class="st17" d="M72.24,92.73l-2.07,5.45l-38.36-7.02c-3.74-0.83-10.22-4.25-9.39-7.2c1.01-3.57,3.94-5.85,7.62-4.82
				L72.24,92.73z"/>
		</g>
		<path class="st3" d="M67.46,77.84l0.48-0.43l2.46-2.22l-1.55-5.86c1.91-0.33,5.29-0.69,6.58-0.82l1.47,7.5
			c0.18,0.94-0.23,1.9-1.04,2.4l-7.74,4.83l-2.62,1.64l-2.05-3.4L67.46,77.84z"/>
		<path class="st3" d="M34.25,75.88l1.81-8.46c1.38,0.36,4.58,1.22,6.39,1.81l-1.69,5.96l1.84,1.73l5,4.69l-2.11,3.36l-3.59-2.33
			l-6.66-4.33C34.44,77.78,34.05,76.82,34.25,75.88z"/>
		<g>
			<path class="st18" d="M37.33,92.65l1.99,5.48l39.68-6.98c3.75-0.77,8.09-3.76,8.15-5.97c0.09-3.06-4.34-6.96-8.04-5.98
				L37.33,92.65z"/>
			<g>
				<path class="st14" d="M37.33,92.65c0,0-9.8,0.65-11.97,1.52c-2.17,0.87,0.77,5.37,2.25,5.63c1.08,0.19,10.35-0.37,11.71-1.66
					L37.33,92.65z"/>
				<path class="st3" d="M37.33,92.65c0,0-3.87,0.79-4.66,1.74c-0.79,0.95-1.03,3.61-0.47,3.74c0.55,0.13,1.22,1.04,7.12,0
					L37.33,92.65z"/>
			</g>
		</g>
		<g>
			<path class="st19" d="M40.64,69.17l2.05,16.13h25.97l0.3-2.4l1.74-13.73c0-1.01-0.81-1.82-1.82-1.82H42.46
				C41.45,67.35,40.64,68.17,40.64,69.17z"/>
			<path class="st20" d="M42.94,86.83h25.47c0.42,0,0.76-0.34,0.76-0.76l0,0c0-0.42-0.34-0.76-0.76-0.76H42.94
				c-0.42,0-0.76,0.34-0.76,0.76l0,0C42.18,86.49,42.52,86.83,42.94,86.83z"/>
			<path class="st20" d="M55.67,74.27c0.16,0,0.31,0.02,0.46,0.05c-0.01,0.06-0.01,0.13-0.01,0.19c0,0.92,0.74,1.66,1.66,1.67
				c0.01,0.07,0.01,0.14,0.01,0.21c0,1.17-0.95,2.12-2.12,2.12c-1.17,0-2.12-0.95-2.12-2.12C53.55,75.22,54.5,74.27,55.67,74.27z"/>
		</g>
	</g>
	<g>
		<g>
			<path class="st21" d="M93.44,44.68c1.36,0,1.89,0.56,1.89,1.77c0,0.11,0.21,0.11,0.21,0c0-1.21,0.43-1.77,1.89-1.77
				c0.11,0,0.11-0.21,0-0.21c-1.51,0-1.89-0.7-1.89-1.77c0-0.11-0.21-0.11-0.21,0c0,1.27-0.51,1.77-1.89,1.77
				C93.33,44.46,93.33,44.68,93.44,44.68z"/>
		</g>
		<g>
			<path class="st21" d="M83.26,35.43c2.03,0,2.83,0.84,2.83,2.64c0,0.17,0.31,0.17,0.31,0c0-1.8,0.64-2.64,2.83-2.64
				c0.16,0,0.16-0.32,0-0.32c-2.25,0-2.83-1.04-2.83-2.64c0-0.17-0.31-0.17-0.31,0c0,1.9-0.77,2.64-2.83,2.64
				C83.1,35.11,83.1,35.43,83.26,35.43z"/>
		</g>
		<g>
			<path class="st21" d="M85.15,54.96c1.55,0,2.16,0.64,2.16,2.02c0,0.13,0.24,0.13,0.24,0c0-1.38,0.49-2.02,2.16-2.02
				c0.13,0,0.13-0.24,0-0.24c-1.72,0-2.16-0.8-2.16-2.02c0-0.13-0.24-0.13-0.24,0c0,1.45-0.59,2.02-2.16,2.02
				C85.03,54.72,85.03,54.96,85.15,54.96z"/>
		</g>
	</g>
</g>
</svg>
